<svg width="512" height="512" viewBox="0 0 512 512" xmlns="http://www.w3.org/2000/svg" fill="black">
<style>
  svg {
    fill: black;
  }
  @media (prefers-color-scheme: dark) {
    fill: white;
  }
</style>
<path d="M147.82 284.513C159.443 306.513 172.42 323.424 192.109 323.424C208.887 323.424 220.843 309.424 231.243 289.868C220.799 296.135 208.243 300.312 192.109 300.312C173.221 300.312 159.221 293.757 147.82 284.513Z" />
<path d="M361.619 192.58C350.553 165.247 337.753 143.958 319.841 143.958C306.242 143.958 295.308 161.425 285.908 185.869C295.175 177.002 306.131 171.492 319.819 171.492C337.575 171.514 350.797 179.958 361.619 192.58Z" />
<path d="M150.403 319.488C161.47 346.777 174.27 368.021 192.136 368.021C205.736 368.021 216.669 350.554 226.069 326.11C216.802 334.976 205.825 340.487 192.113 340.487C174.402 340.487 161.224 332.087 150.402 319.487L150.403 319.488Z" />
<path d="M319.824 188.575C303.091 188.575 291.158 202.575 280.758 222.108C291.202 215.864 303.736 211.664 319.824 211.664C338.735 211.664 352.758 218.242 364.18 227.486C352.536 205.508 339.514 188.575 319.824 188.575Z" />
<path d="M256 0C114.62 0 0 114.62 0 256C0 397.38 114.62 512 256 512C397.38 512 512 397.38 512 256C512 114.62 397.38 0 256 0ZM447.534 329.842C430.845 329.842 418.156 320.153 407.756 305.175C407.089 304.731 406.445 304.22 405.911 303.598C402.178 299.264 398.578 294.309 395.2 288.82L395.089 288.642C388.422 281.864 382.578 274.286 376.934 266.953C361.178 246.442 347.556 228.73 319.846 228.73C292.557 228.73 278.957 243.153 263.734 260.152C246.645 324.687 230.268 385.086 192.179 385.086C154.179 385.086 136.935 334.908 120.266 286.395C105.555 243.528 90.333 199.219 64.4884 199.219C59.7773 199.219 55.9551 195.396 55.9551 190.685C55.9551 185.974 59.7773 182.152 64.4884 182.152C81.1773 182.152 93.8664 191.841 104.244 206.818C104.933 207.263 105.577 207.774 106.089 208.396C109.822 212.73 113.422 217.685 116.8 223.174L116.911 223.352C123.555 230.13 129.377 237.663 135 244.974C150.777 265.508 164.4 283.263 192.11 283.263C219.444 283.263 233.044 268.864 248.244 251.864C265.333 187.329 281.71 126.907 319.821 126.907C357.844 126.907 375.066 177.085 391.735 225.621C406.445 268.488 421.668 312.797 447.512 312.797C452.224 312.797 456.046 316.62 456.046 321.331C456.068 326.02 452.246 329.842 447.535 329.842H447.534Z" />
</svg>
