<svg xmlns="http://www.w3.org/2000/svg" viewBox="0 0 503.37 160"><defs><style>.cls-1{fill:#fff;}</style></defs><title>Asset 1</title><g id="Layer_2" data-name="Layer 2"><g id="Layer_1-2" data-name="Layer 1"><path class="cls-1" d="M46.19,88.91c3.64,6.88,7.69,12.16,13.84,12.16,5.25,0,9-4.38,12.23-10.49A23,23,0,0,1,60,93.85,21.12,21.12,0,0,1,46.19,88.91Z"/><path class="cls-1" d="M113,60.18C109.55,51.64,105.55,45,100,45c-4.25,0-7.67,5.46-10.6,13.09a14.85,14.85,0,0,1,10.59-4.49C105.49,53.6,109.62,56.24,113,60.18Z"/><path class="cls-1" d="M47,99.84C50.46,108.37,54.46,115,60,115c4.25,0,7.67-5.46,10.61-13.1A14.9,14.9,0,0,1,60,106.4c-5.54,0-9.66-2.62-13-6.56Z"/><path class="cls-1" d="M99.94,58.93c-5.22,0-9,4.37-12.2,10.48a23.06,23.06,0,0,1,12.2-3.26,21.16,21.16,0,0,1,13.87,4.94C110.17,64.22,106.1,58.93,99.94,58.93Z"/><path class="cls-1" d="M80,0a80,80,0,1,0,80,80A80,80,0,0,0,80,0Zm59.85,103.08c-5.21,0-9.18-3-12.43-7.71a2.47,2.47,0,0,1-.57-.5,36,36,0,0,1-3.35-4.61l0-.06a75.13,75.13,0,0,1-5.67-6.78C112.87,77,108.61,71.48,100,71.48S87.17,76,82.42,81.3c-5.34,20.16-10.46,39-22.36,39S42.79,104.66,37.58,89.5C33,76.1,28.23,62.26,20.15,62.26a2.67,2.67,0,0,1,0-5.34c5.22,0,9.18,3,12.43,7.71a2.68,2.68,0,0,1,.57.49,36.88,36.88,0,0,1,3.35,4.62l0,.06a74.39,74.39,0,0,1,5.66,6.75c4.93,6.42,9.18,12,17.84,12s12.8-4.5,17.55-9.81c5.34-20.17,10.45-39,22.36-39s17.27,15.68,22.48,30.85c4.59,13.39,9.35,27.24,17.43,27.24a2.67,2.67,0,0,1,0,5.33Z"/><path class="cls-1" d="M270,79.62A53.29,53.29,0,0,1,266,101,29.52,29.52,0,0,1,253.67,115q-8.47,5.05-21.89,5.06-13.2,0-21.67-5.06a30.6,30.6,0,0,1-12.54-14.19,53.29,53.29,0,0,1-4-21.34q0-12.21,4.07-21.23a30.33,30.33,0,0,1,12.43-14q8.47-5.06,21.78-5.06t21.78,5.06A28.86,28.86,0,0,1,266,58.39Q270,67.41,270,79.62Zm-54,0q0,10.66,3.63,16.72t12.21,6q8.81,0,12.32-6t3.52-16.72q0-10.66-3.52-16.83t-12.21-6.16q-8.69,0-12.32,6.16T215.94,79.62Z"/><path class="cls-1" d="M313.66,57.07a20.94,20.94,0,0,1,3.63.33l2.75.33-1.87,19.8c-.74-.15-1.65-.29-2.75-.44a32.79,32.79,0,0,0-4.4-.22,23.83,23.83,0,0,0-5.72.77A9.83,9.83,0,0,0,300,81.05c-1.4,1.69-2.09,4.36-2.09,8V119h-21V58.17h15.62l3.3,9.68h1a22.24,22.24,0,0,1,7-7.59A16.91,16.91,0,0,1,313.66,57.07Z"/><path class="cls-1" d="M352,57.07q11.55,0,18,5.72t6.49,16.28V119H362L358,111h-.44a35.52,35.52,0,0,1-5.28,5.28,17,17,0,0,1-6.16,2.86,32.12,32.12,0,0,1-8.58,1,18.78,18.78,0,0,1-13.2-4.84Q319,110.42,319,100.41q0-9.8,6.71-14.52t19.69-5.28l10.12-.33V79.4q0-4.07-2-5.72a7.84,7.84,0,0,0-5.39-1.76,28.15,28.15,0,0,0-8,1.32,65.94,65.94,0,0,0-8.91,3.19l-6.05-13.86a44.58,44.58,0,0,1,11.88-4.07A72.17,72.17,0,0,1,352,57.07Zm3.63,34.76-4.84.22c-3.89.15-6.6.84-8.14,2.09a7,7,0,0,0-.66,9.68,6.51,6.51,0,0,0,4.4,1.43,9.26,9.26,0,0,0,6.49-2.42,8,8,0,0,0,2.75-6.27Z"/><path class="cls-1" d="M413.58,120.1q-13.84,0-22.1-7.48t-8.25-23.76q0-11,4.17-18a25.35,25.35,0,0,1,11.33-10.34,38.48,38.48,0,0,1,16.5-3.41,40.92,40.92,0,0,1,10.57,1.32,45.53,45.53,0,0,1,9.34,3.3L429,77.2a61.28,61.28,0,0,0-7-2.64,23.32,23.32,0,0,0-6.72-1,9.38,9.38,0,0,0-7.69,3.74c-2,2.49-3,6.31-3,11.44,0,5.28,1,9.06,3,11.33a10,10,0,0,0,7.81,3.3,29.74,29.74,0,0,0,9-1.43,36.74,36.74,0,0,0,8.69-4v16.72a32.48,32.48,0,0,1-8.57,4A37.17,37.17,0,0,1,413.58,120.1Z"/><path class="cls-1" d="M436.16,58.17h22.11L468.61,93a18.34,18.34,0,0,1,.55,3,32,32,0,0,1,.44,3.63H470a35.51,35.51,0,0,1,.55-3.74c.29-1.1.55-2,.77-2.75l10.56-35h21.45l-24.09,64.68a50.58,50.58,0,0,1-6.49,12.43,22.86,22.86,0,0,1-9.13,7.59,31.17,31.17,0,0,1-13.31,2.53,32.15,32.15,0,0,1-5-.33,36.33,36.33,0,0,1-3.63-.55V128c.73.15,1.69.29,2.86.44a28.54,28.54,0,0,0,3.63.22q5.17,0,7.59-3.08a24,24,0,0,0,4.07-6.93l.22-.55-12-30Z"/></g></g></svg>