<svg width="504" height="160" viewBox="0 0 504 160" fill="none" xmlns="http://www.w3.org/2000/svg">
<path d="M46.1938 88.9102C49.8258 95.7852 53.8813 101.07 60.0342 101.07C65.2772 101.07 69.0134 96.6949 72.2634 90.5838C68.9995 92.5422 65.0758 93.8476 60.0342 93.8476C54.1314 93.8476 49.7565 91.7991 46.1938 88.9102Z" fill="black"/>
<path d="M113.006 60.1813C109.548 51.6397 105.548 44.9868 99.9505 44.9868C95.7006 44.9868 92.2839 50.4452 89.3464 58.0841C92.2423 55.3132 95.6659 53.5911 99.9436 53.5911C105.492 53.5981 109.624 56.237 113.006 60.1813Z" fill="black"/>
<path d="M47.0009 99.84C50.4592 108.368 54.4592 115.007 60.0425 115.007C64.2925 115.007 67.7092 109.548 70.6466 101.909C67.7508 104.68 64.3202 106.402 60.0354 106.402C54.5006 106.402 50.3826 103.777 47.0007 99.8398L47.0009 99.84Z" fill="black"/>
<path d="M99.9449 58.9298C94.7158 58.9298 90.9865 63.3047 87.7366 69.4089C91.0004 67.4574 94.9172 66.1451 99.9449 66.1451C105.855 66.1451 110.237 68.2005 113.806 71.0894C110.167 64.2213 106.098 58.9298 99.9449 58.9298Z" fill="black"/>
<path d="M80 0C35.8187 0 0 35.8187 0 80C0 124.181 35.8187 160 80 160C124.181 160 160 124.181 160 80C160 35.8187 124.181 0 80 0ZM139.854 103.076C134.639 103.076 130.674 100.048 127.424 95.3673C127.215 95.2284 127.014 95.0687 126.847 94.8742C125.681 93.5201 124.556 91.9715 123.5 90.2561L123.465 90.2005C121.382 88.0825 119.556 85.7145 117.792 83.4228C112.868 77.013 108.611 71.4782 99.9517 71.4782C91.4239 71.4782 87.174 75.9853 82.417 81.2976C77.0767 101.465 71.9587 120.339 60.0561 120.339C48.1811 120.339 42.7923 104.659 37.5832 89.4985C32.986 76.1026 28.2291 62.2558 20.1526 62.2558C18.6804 62.2558 17.486 61.0614 17.486 59.5892C17.486 58.117 18.6804 56.9225 20.1526 56.9225C25.3679 56.9225 29.3332 59.9502 32.5763 64.6308C32.7915 64.7697 32.9929 64.9294 33.1527 65.1238C34.3193 66.478 35.4444 68.0266 36.4999 69.742L36.5346 69.7975C38.611 71.9156 40.4304 74.2697 42.1874 76.5545C47.1179 82.9712 51.3749 88.5198 60.0345 88.5198C68.5762 88.5198 72.8261 84.0199 77.5762 78.7074C82.9164 58.5403 88.0345 39.6585 99.9442 39.6585C111.826 39.6585 117.208 55.339 122.417 70.5065C127.014 83.9024 131.771 97.7492 139.848 97.7492C141.32 97.7492 142.514 98.9436 142.514 100.416C142.521 101.881 141.327 103.076 139.855 103.076H139.854Z" fill="black"/>
<path d="M269.95 79.62C269.95 87.76 268.63 94.8733 265.99 100.96C263.423 106.973 259.317 111.667 253.67 115.04C248.023 118.413 240.727 120.1 231.78 120.1C222.98 120.1 215.757 118.413 210.11 115.04C204.463 111.667 200.283 106.937 197.57 100.85C194.93 94.7633 193.61 87.65 193.61 79.51C193.61 71.37 194.967 64.2933 197.68 58.28C200.393 52.2667 204.537 47.61 210.11 44.31C215.757 40.9367 223.017 39.25 231.89 39.25C240.837 39.25 248.097 40.9367 253.67 44.31C259.317 47.61 263.423 52.3033 265.99 58.39C268.63 64.4033 269.95 71.48 269.95 79.62ZM215.94 79.62C215.94 86.7333 217.15 92.3067 219.57 96.34C222.063 100.373 226.133 102.39 231.78 102.39C237.647 102.39 241.753 100.373 244.1 96.34C246.447 92.3067 247.62 86.7333 247.62 79.62C247.62 72.5067 246.447 66.8967 244.1 62.79C241.753 58.6833 237.683 56.63 231.89 56.63C226.097 56.63 221.99 58.6833 219.57 62.79C217.15 66.8967 215.94 72.5067 215.94 79.62Z" fill="black"/>
<path d="M313.656 57.07C314.83 57.07 316.04 57.18 317.286 57.4C318.533 57.5467 319.45 57.6567 320.036 57.73L318.166 77.53C317.433 77.3833 316.516 77.2367 315.416 77.09C314.39 76.9433 312.923 76.87 311.016 76.87C309.256 76.87 307.35 77.1267 305.296 77.64C303.243 78.1533 301.483 79.29 300.016 81.05C298.623 82.7367 297.926 85.4133 297.926 89.08V119H276.916V58.17H292.536L295.836 67.85H296.826C298.513 64.8433 300.86 62.3133 303.866 60.26C306.946 58.1333 310.21 57.07 313.656 57.07Z" fill="black"/>
<path d="M352.03 57.07C359.73 57.07 365.744 58.9767 370.07 62.79C374.397 66.6033 376.56 72.03 376.56 79.07V119H362.04L357.97 110.97H357.53C355.77 113.097 354.01 114.857 352.25 116.25C350.49 117.57 348.437 118.523 346.09 119.11C343.744 119.77 340.884 120.1 337.51 120.1C332.23 120.1 327.83 118.487 324.31 115.26C320.79 112.033 319.03 107.083 319.03 100.41C319.03 93.8833 321.267 89.0433 325.74 85.89C330.287 82.7367 336.85 80.9767 345.43 80.61L355.55 80.28V79.4C355.55 76.6867 354.89 74.78 353.57 73.68C352.25 72.5067 350.454 71.92 348.18 71.92C345.76 71.92 343.084 72.36 340.15 73.24C337.217 74.0467 334.247 75.11 331.24 76.43L325.19 62.57C328.71 60.7367 332.67 59.38 337.07 58.5C341.544 57.5467 346.53 57.07 352.03 57.07ZM355.66 91.83L350.82 92.05C346.934 92.1967 344.22 92.8933 342.68 94.14C341.14 95.3133 340.37 97 340.37 99.2C340.37 101.253 340.92 102.793 342.02 103.82C343.12 104.773 344.587 105.25 346.42 105.25C348.987 105.25 351.15 104.443 352.91 102.83C354.744 101.217 355.66 99.1267 355.66 96.56V91.83Z" fill="black"/>
<path d="M413.585 120.1C404.345 120.1 396.975 117.607 391.475 112.62C385.975 107.633 383.225 99.7133 383.225 88.86C383.225 81.5267 384.619 75.5133 387.405 70.82C390.192 66.1267 393.969 62.68 398.735 60.48C403.575 58.2067 409.075 57.07 415.235 57.07C418.975 57.07 422.495 57.51 425.795 58.39C429.169 59.1967 432.285 60.2967 435.145 61.69L428.985 77.2C426.492 76.1 424.145 75.22 421.945 74.56C419.745 73.9 417.509 73.57 415.235 73.57C412.082 73.57 409.515 74.8167 407.535 77.31C405.555 79.8033 404.565 83.6167 404.565 88.75C404.565 94.03 405.555 97.8067 407.535 100.08C409.515 102.28 412.119 103.38 415.345 103.38C418.352 103.38 421.359 102.903 424.365 101.95C427.445 100.997 430.342 99.6767 433.055 97.99V114.71C430.489 116.397 427.629 117.717 424.475 118.67C421.395 119.623 417.765 120.1 413.585 120.1Z" fill="black"/>
<path d="M436.16 58.17H458.27L468.61 93.04C468.83 93.7733 469.013 94.7633 469.16 96.01C469.38 97.2567 469.526 98.4667 469.6 99.64H470.04C470.186 98.1733 470.37 96.9267 470.59 95.9C470.883 94.8 471.14 93.8833 471.36 93.15L481.92 58.17H503.37L479.28 122.85C477.446 127.763 475.283 131.907 472.79 135.28C470.37 138.653 467.326 141.183 463.66 142.87C460.066 144.557 455.63 145.4 450.35 145.4C448.443 145.4 446.793 145.29 445.4 145.07C444.006 144.923 442.796 144.74 441.77 144.52V128.02C442.503 128.167 443.456 128.313 444.63 128.46C445.803 128.607 447.013 128.68 448.26 128.68C451.706 128.68 454.236 127.653 455.85 125.6C457.536 123.62 458.893 121.31 459.92 118.67L460.14 118.12L448.15 88.145L436.16 58.17Z" fill="black"/>
</svg>
